<?xml version="1.0" encoding="utf-8"?>
<!-- Generator: Adobe Illustrator 25.0.0, SVG Export Plug-In . SVG Version: 6.00 Build 0)  -->
<svg version="1.1" xmlns="http://www.w3.org/2000/svg" xmlns:xlink="http://www.w3.org/1999/xlink" x="0px" y="0px"
	 viewBox="0 0 361 361" style="enable-background:new 0 0 361 361;" xml:space="preserve">
<style type="text/css">
	.st0{display:none;}
	.st1{display:inline;fill:#0C322C;}
	.st2{fill:none;stroke:#EFEFEF;stroke-width:17;stroke-miterlimit:10;}
	.st3{fill:none;stroke:#90EBCD;stroke-width:17;stroke-miterlimit:10;}
</style>
<g id="Background" class="st0">
	<rect x="-2366.5" y="-1079.5" class="st1" width="2862" height="2070"/>
</g>
<g id="Layer_1">
	<path class="st2" d="M117.5,270.5c-54.68,0-99-44.32-99-99s44.32-99,99-99s99,44.32,99,99"/>
	<polyline class="st3" points="333.5,207.5 333.5,324.5 216.5,324.5 171.5,324.5 153.5,324.5 153.5,207.5 270.5,207.5 	"/>
	<polyline class="st2" points="63.5,135.5 126.5,180.5 162.5,153.5 	"/>
	<line class="st2" x1="189.5" y1="234.5" x2="189.5" y2="297.5"/>
	<line class="st2" x1="225.5" y1="234.5" x2="225.5" y2="297.5"/>
	<line class="st2" x1="261.5" y1="234.5" x2="261.5" y2="297.5"/>
	<line class="st2" x1="297.5" y1="144.5" x2="297.5" y2="297.5"/>
	<polyline class="st2" points="331,169.39 297.11,135.5 263.22,169.39 	"/>
</g>
<g id="Outlines">
</g>
</svg>
