<?xml version="1.0" encoding="utf-8"?>
<!-- Generator: Adobe Illustrator 25.0.0, SVG Export Plug-In . SVG Version: 6.00 Build 0)  -->
<svg version="1.1" xmlns="http://www.w3.org/2000/svg" xmlns:xlink="http://www.w3.org/1999/xlink" x="0px" y="0px"
	 viewBox="0 0 360 360" style="enable-background:new 0 0 360 360;" xml:space="preserve">
<style type="text/css">
	.st0{display:none;}
	.st1{display:inline;fill:#0C322C;}
	.st2{fill:none;stroke:#90EBCD;stroke-width:17;stroke-miterlimit:10;}
	.st3{fill:none;stroke:#EFEFEF;stroke-width:17;stroke-miterlimit:10;}
</style>
<g id="Background" class="st0">
	<rect x="-1071" y="-1080" class="st1" width="2862" height="2070"/>
</g>
<g id="Layer_1">
	<path class="st2" d="M117.5,198.5h-81v-54c0-24.85,20.15-45,45-45h9v-27c0-24.85,20.15-45,45-45h99c24.85,0,45,20.15,45,45v45h0
		c24.85,0,45,20.15,45,45v36h-81"/>
	<line class="st3" x1="180.5" y1="135.5" x2="180.5" y2="306.5"/>
	<polyline class="st3" points="144.5,153.5 144.5,243.5 72.5,243.5 	"/>
	<polyline class="st3" points="216.5,153.5 216.5,270.5 288.5,270.5 	"/>
	<line class="st2" x1="54.5" y1="243.5" x2="36.5" y2="243.5"/>
	<line class="st2" x1="180.5" y1="324.5" x2="180.5" y2="342.5"/>
	<line class="st2" x1="306.5" y1="270.5" x2="324.5" y2="270.5"/>
</g>
<g id="Outlines">
</g>
</svg>
